<?xml version="1.0" encoding="UTF-8"?>
<svg version="1.1" xmlns="http://www.w3.org/2000/svg" width="96" height="96">
<path d="M0 0 C31.68 0 63.36 0 96 0 C96 31.68 96 63.36 96 96 C64.32 96 32.64 96 0 96 C0 64.32 0 32.64 0 0 Z " fill="#443255" transform="translate(0,0)"/>
<path d="M0 0 C8.91 0 17.82 0 27 0 C27.0825 2.990625 27.165 5.98125 27.25 9.0625 C27.28641602 9.99070557 27.32283203 10.91891113 27.36035156 11.87524414 C27.43922767 17.82848222 26.30388672 21.06014616 23 26 C22.7215625 27.11375 22.7215625 27.11375 22.4375 28.25 C22 30 22 30 20.4375 31.4375 C18.72259679 32.93766918 18.72259679 32.93766918 19.0625 35.375 C18.97264806 39.14878142 17.62195113 40.31250009 15 43 C12.40299125 45.102087 9.71736503 47.05750859 7 49 C6.33613281 49.54785156 5.67226563 50.09570312 4.98828125 50.66015625 C1.87626746 52.75725002 -1.41173814 52.47069193 -5 52 C-7.31 51.34 -9.62 50.68 -12 50 C-12 37.46 -12 24.92 -12 12 C-8.04 12 -4.08 12 0 12 C0 8.04 0 4.08 0 0 Z " fill="#B94761" transform="translate(36,25)"/>
<path d="M0 0 C23.1 0 46.2 0 70 0 C70 4.29 70 8.58 70 13 C71.65 13 73.3 13 75 13 C75 33.13 75 53.26 75 74 C72.03 74 69.06 74 66 74 C66 73.01 66 72.02 66 71 C67.98 71 69.96 71 72 71 C72 52.85 72 34.7 72 16 C47.24199914 13.85073273 47.24199914 13.85073273 41 21 C40.34 21 39.68 21 39 21 C40.2973581 18.10589348 41.51788629 16.00046254 44 14 C46.26831055 13.56762695 46.26831055 13.56762695 48.88671875 13.48828125 C49.82451172 13.45283203 50.76230469 13.41738281 51.72851562 13.38085938 C52.70498047 13.35830078 53.68144531 13.33574219 54.6875 13.3125 C56.16959961 13.26125977 56.16959961 13.26125977 57.68164062 13.20898438 C60.12098053 13.12649462 62.55996063 13.05734932 65 13 C62.8046258 7.00995826 62.8046258 7.00995826 58 3 C57.19175781 3.63808594 56.38351563 4.27617188 55.55078125 4.93359375 C54.47171576 5.76869661 53.39226837 6.60330615 52.3125 7.4375 C51.51682617 8.06881836 51.51682617 8.06881836 50.70507812 8.71289062 C47.5139425 11.16008052 45.02452077 12.58933461 41 13 C40.505 11.515 40.505 11.515 40 10 C37.09542774 10.99585334 35.01951308 11.98408144 32.625 13.9375 C30.18735902 15.85278934 27.96871278 17.00722618 25.09765625 18.13671875 C23.45618464 18.81225921 21.84403138 19.55912809 20.24609375 20.33203125 C19.27800781 20.79996094 18.30992188 21.26789062 17.3125 21.75 C16.40113281 22.19859375 15.48976563 22.6471875 14.55078125 23.109375 C11.71040492 24.10111436 10.7943693 23.7791428 8 23 C5.95708818 24.26660533 3.95309888 25.59886384 2 27 C1.34 27 0.68 27 0 27 C0 18.09 0 9.18 0 0 Z " fill="#3C223E" transform="translate(0,0)"/>
<path d="M0 0 C0.495 0.99 0.495 0.99 1 2 C1.928125 2.3403125 1.928125 2.3403125 2.875 2.6875 C6.15578499 4.7138672 6.67916229 7.43373819 8 11 C7 12 7 12 5.03808594 12.11010742 C4.19536133 12.10857666 3.35263672 12.1070459 2.484375 12.10546875 C1.56269531 12.12029297 0.64101563 12.13511719 -0.30859375 12.15039062 C-2.25375842 12.17493122 -4.19926536 12.18045417 -6.14453125 12.16601562 C-11.31060023 12.16441487 -11.31060023 12.16441487 -15.78710938 14.38916016 C-17.35218068 16.18863285 -17.35218068 16.18863285 -19 19 C-17.02 17.35 -15.04 15.7 -13 14 C-4.09 14 4.82 14 14 14 C14 32.15 14 50.3 14 69 C12.02 69 10.04 69 8 69 C7.505 70.485 7.505 70.485 7 72 C7 55.17 7 38.34 7 21 C-2.9 21.33 -12.8 21.66 -23 22 C-23 25.63 -23 29.26 -23 33 C-24 34 -24 34 -26.72265625 34.09765625 C-27.82480469 34.08605469 -28.92695313 34.07445312 -30.0625 34.0625 C-31.16722656 34.05347656 -32.27195312 34.04445312 -33.41015625 34.03515625 C-34.26480469 34.02355469 -35.11945312 34.01195312 -36 34 C-36.33 32.68 -36.66 31.36 -37 30 C-41.02992782 30.55312735 -45.02022924 31.1558062 -49 32 C-49 31.01 -49 30.02 -49 29 C-53.54170996 30.90884692 -53.54170996 30.90884692 -58 33 C-58.52093023 27.79069767 -58.52093023 27.79069767 -58 25 C-55.25 22.4375 -55.25 22.4375 -52 21 C-51.09894531 21.28423828 -51.09894531 21.28423828 -50.1796875 21.57421875 C-46.852453 22.22416241 -44.87629589 20.84310377 -41.875 19.375 C-40.72773437 18.818125 -39.58046875 18.26125 -38.3984375 17.6875 C-37.27695312 17.130625 -36.15546875 16.57375 -35 16 C-34.04351562 15.54625 -33.08703125 15.0925 -32.1015625 14.625 C-28.41539812 12.85386997 -25.29234595 11.24150318 -22.125 8.625 C-20 7 -20 7 -17.6875 7.25 C-17.130625 7.4975 -16.57375 7.745 -16 8 C-16 8.66 -16 9.32 -16 10 C-11.36711185 8.70931268 -8.30246056 6.9561156 -4.625 3.875 C-3.75101563 3.15054687 -2.87703125 2.42609375 -1.9765625 1.6796875 C-1.32429688 1.12539063 -0.67203125 0.57109375 0 0 Z " fill="#6A2D47" transform="translate(58,2)"/>
<path d="M0 0 C13.86 0 27.72 0 42 0 C41.34 1.32 40.68 2.64 40 4 C39.34 4 38.68 4 38 4 C37.7525 4.62003906 37.505 5.24007813 37.25 5.87890625 C35.73861899 8.4435309 34.7400996 8.87571141 32 9.9375 C31.18789063 10.27394531 30.37578125 10.61039063 29.5390625 10.95703125 C28.70117188 11.30121094 27.86328125 11.64539062 27 12 C19.81955061 15.17361159 13.43527652 19.2382563 7.00146484 23.69775391 C2.19990157 27 2.19990157 27 0 27 C0 18.09 0 9.18 0 0 Z " fill="#1D0F1E" transform="translate(0,0)"/>
<path d="M0 0 C8.91 0 17.82 0 27 0 C27 18.15 27 36.3 27 55 C25.02 55 23.04 55 21 55 C20.67 55.99 20.34 56.98 20 58 C20 40.84 20 23.68 20 6 C9.77 6 -0.46 6 -11 6 C-10.01 5.01 -9.02 4.02 -8 3 C-7.360625 3.185625 -6.72125 3.37125 -6.0625 3.5625 C-5.381875 3.706875 -4.70125 3.85125 -4 4 C-2.68 2.68 -1.36 1.36 0 0 Z " fill="#88456D" transform="translate(45,16)"/>
<path d="M0 0 C0.33 0 0.66 0 1 0 C1 12.54 1 25.08 1 38 C12.09891139 39.68217974 12.09891139 39.68217974 20.84375 35.66796875 C22.5726586 34.12255281 24.2936475 32.57031073 26 31 C26.969375 30.154375 27.93875 29.30875 28.9375 28.4375 C31.39995241 25.52732898 31.09140035 24.65601396 31 21 C32.30135125 19.30824337 33.63755204 17.64295195 35 16 C35.67863055 14.0040278 36.34641919 12.00431449 37 10 C37.99 9.01 38.98 8.02 40 7 C40 18.88 40 30.76 40 43 C26.8 43 13.6 43 0 43 C0 28.81 0 14.62 0 0 Z " fill="#79416C" transform="translate(23,37)"/>
<path d="M0 0 C1.25159912 0.00523682 2.50319824 0.01047363 3.79272461 0.01586914 C5.00839111 0.0183667 6.22405762 0.02086426 7.4765625 0.0234375 C9.03366943 0.0325415 10.59077637 0.04164551 12.19506836 0.05102539 C17.12444336 0.07165039 22.05381836 0.09227539 27.13256836 0.11352539 C27.13256836 19.58352539 27.13256836 39.05352539 27.13256836 59.11352539 C12.61256836 59.11352539 -1.90743164 59.11352539 -16.86743164 59.11352539 C-16.86743164 43.93352539 -16.86743164 28.75352539 -16.86743164 13.11352539 C-13.85252607 12.10855687 -11.82561472 12.01017236 -8.67993164 12.05102539 C-7.77887695 12.06004883 -6.87782227 12.06907227 -5.94946289 12.07836914 C-5.26239258 12.0899707 -4.57532227 12.10157227 -3.86743164 12.11352539 C-3.8790332 11.33106445 -3.89063477 10.54860352 -3.90258789 9.74243164 C-3.91161133 8.73051758 -3.92063477 7.71860352 -3.92993164 6.67602539 C-3.9415332 5.66668945 -3.95313477 4.65735352 -3.96508789 3.61743164 C-3.82513242 0.02897331 -3.62543839 0.14353588 0 0 Z M-1.86743164 2.11352539 C-1.86743164 6.07352539 -1.86743164 10.03352539 -1.86743164 14.11352539 C-6.15743164 14.11352539 -10.44743164 14.11352539 -14.86743164 14.11352539 C-14.86743164 28.30352539 -14.86743164 42.49352539 -14.86743164 57.11352539 C-1.66743164 57.11352539 11.53256836 57.11352539 25.13256836 57.11352539 C25.13256836 38.96352539 25.13256836 20.81352539 25.13256836 2.11352539 C16.22256836 2.11352539 7.31256836 2.11352539 -1.86743164 2.11352539 Z " fill="#060203" transform="translate(37.867431640625,22.886474609375)"/>
<path d="M0 0 C1.87691528 0.01123901 1.87691528 0.01123901 3.79174805 0.02270508 C5.382854 0.05001709 6.97395996 0.0773291 8.61328125 0.10546875 C13.66640625 0.16734375 18.71953125 0.22921875 23.92578125 0.29296875 C23.92578125 20.09296875 23.92578125 39.89296875 23.92578125 60.29296875 C20.95578125 60.29296875 17.98578125 60.29296875 14.92578125 60.29296875 C14.92578125 59.30296875 14.92578125 58.31296875 14.92578125 57.29296875 C16.90578125 57.29296875 18.88578125 57.29296875 20.92578125 57.29296875 C20.92578125 39.14296875 20.92578125 20.99296875 20.92578125 2.29296875 C-3.83221961 0.14370148 -3.83221961 0.14370148 -10.07421875 7.29296875 C-10.73421875 7.29296875 -11.39421875 7.29296875 -12.07421875 7.29296875 C-9.22156859 0.92936455 -7.05521088 -0.08639034 0 0 Z " fill="#1D1E30" transform="translate(51.07421875,13.70703125)"/>
<path d="M0 0 C0.33 0 0.66 0 1 0 C1 12.87 1 25.74 1 39 C-0.98 39 -2.96 39 -5 39 C-5.33 39.99 -5.66 40.98 -6 42 C-6.11668418 37.47938558 -6.18741645 32.95916153 -6.25 28.4375 C-6.28351563 27.16068359 -6.31703125 25.88386719 -6.3515625 24.56835938 C-6.42620682 17.38384389 -6.21799244 12.87210712 -2 7 C-1.83201738 4.29113059 -1.83201738 4.29113059 -2 2 C-1.34 1.34 -0.68 0.68 0 0 Z " fill="#775C8C" transform="translate(71,32)"/>
<path d="M0 0 C0.33 0 0.66 0 1 0 C1 6.93 1 13.86 1 21 C-4.61 21 -10.22 21 -16 21 C-12 16 -12 16 -9.0625 13.8125 C-5.43914002 10.95243666 -3.86845668 7.23973047 -1.98046875 3.109375 C-1 1 -1 1 0 0 Z " fill="#4F4784" transform="translate(62,59)"/>
<path d="M0 0 C0.33 0.66 0.66 1.32 1 2 C1.61875 2.226875 2.2375 2.45375 2.875 2.6875 C6.15578499 4.7138672 6.67916229 7.43373819 8 11 C7 12 7 12 4.95874023 12.11352539 C4.08419189 12.10828857 3.20964355 12.10305176 2.30859375 12.09765625 C1.36435547 12.09443359 0.42011719 12.09121094 -0.55273438 12.08789062 C-1.54595703 12.07951172 -2.53917969 12.07113281 -3.5625 12.0625 C-4.55958984 12.05798828 -5.55667969 12.05347656 -6.58398438 12.04882812 C-9.05604849 12.03700007 -11.52799518 12.02051849 -14 12 C-14 11.34 -14 10.68 -14 10 C-12.63966133 9.04776293 -11.27112602 8.10544801 -9.8671875 7.21875 C-6.45180442 4.9894623 -3.24360336 2.46974875 0 0 Z " fill="#4C2847" transform="translate(58,2)"/>
<path d="M0 0 C0.556875 0.2475 1.11375 0.495 1.6875 0.75 C-0.4563242 3.96573629 -1.20133167 4.36902454 -4.625 5.75 C-7.32249645 6.87576096 -9.67976812 7.97355451 -12.1875 9.5 C-14.3125 10.75 -14.3125 10.75 -17.3125 10.75 C-17.6425 11.74 -17.9725 12.73 -18.3125 13.75 C-19.55 13.8428125 -19.55 13.8428125 -20.8125 13.9375 C-27.67632111 15.53088704 -32.82284487 19.9632276 -37.96484375 24.61328125 C-39.3125 25.75 -39.3125 25.75 -40.3125 25.75 C-40.83343023 20.54069767 -40.83343023 20.54069767 -40.3125 17.75 C-37.5625 15.1875 -37.5625 15.1875 -34.3125 13.75 C-33.71179687 13.93949219 -33.11109375 14.12898438 -32.4921875 14.32421875 C-29.164953 14.97416241 -27.18879589 13.59310377 -24.1875 12.125 C-22.46660156 11.2896875 -22.46660156 11.2896875 -20.7109375 10.4375 C-19.58945312 9.880625 -18.46796875 9.32375 -17.3125 8.75 C-16.35601563 8.29625 -15.39953125 7.8425 -14.4140625 7.375 C-10.72789812 5.60386997 -7.60484595 3.99150318 -4.4375 1.375 C-2.3125 -0.25 -2.3125 -0.25 0 0 Z " fill="#592849" transform="translate(40.3125,9.25)"/>
<path d="M0 0 C1.21067139 0.00749268 2.42134277 0.01498535 3.66870117 0.02270508 C5.97704956 0.0636731 5.97704956 0.0636731 8.33203125 0.10546875 C13.22015625 0.16734375 18.10828125 0.22921875 23.14453125 0.29296875 C23.14453125 19.10296875 23.14453125 37.91296875 23.14453125 57.29296875 C22.81453125 57.29296875 22.48453125 57.29296875 22.14453125 57.29296875 C22.14453125 39.14296875 22.14453125 20.99296875 22.14453125 2.29296875 C15.33828125 2.41671875 15.33828125 2.41671875 8.39453125 2.54296875 C6.96915039 2.55875977 5.54376953 2.57455078 4.07519531 2.59082031 C2.94823242 2.62143555 1.82126953 2.65205078 0.66015625 2.68359375 C-0.49194336 2.70454102 -1.64404297 2.72548828 -2.83105469 2.74707031 C-6.43546819 3.39765706 -7.49233896 4.59397628 -9.85546875 7.29296875 C-10.51546875 7.29296875 -11.17546875 7.29296875 -11.85546875 7.29296875 C-9.05241499 1.04000266 -6.94015235 -0.08785003 0 0 Z " fill="#020101" transform="translate(50.85546875,13.70703125)"/>
<path d="M0 0 C0.33 0 0.66 0 1 0 C1 12.54 1 25.08 1 38 C5.29 38.33 9.58 38.66 14 39 C15.65 39.33 17.3 39.66 19 40 C18.34 40.99 17.68 41.98 17 43 C11.39 43 5.78 43 0 43 C0 28.81 0 14.62 0 0 Z " fill="#672C44" transform="translate(23,37)"/>
<path d="M0 0 C0.66 0.33 1.32 0.66 2 1 C0.54718935 6.32697239 -3.08111378 9.36402802 -7 13 C-7.66 12.67 -8.32 12.34 -9 12 C-9 11.34 -9 10.68 -9 10 C-10.11375 10.20625 -11.2275 10.4125 -12.375 10.625 C-13.57125 10.74875 -14.7675 10.8725 -16 11 C-16.66 10.34 -17.32 9.68 -18 9 C-15.56401192 7.68462636 -13.1263175 6.37260857 -10.6875 5.0625 C-9.99720703 4.68931641 -9.30691406 4.31613281 -8.59570312 3.93164062 C-7.92861328 3.57392578 -7.26152344 3.21621094 -6.57421875 2.84765625 C-5.65515747 2.3527771 -5.65515747 2.3527771 -4.7175293 1.84790039 C-3 1 -3 1 0 0 Z " fill="#8A3655" transform="translate(30,22)"/>
<path d="M0 0 C0.66 0.33 1.32 0.66 2 1 C2.02688151 2.64574566 2.04634123 4.29161413 2.0625 5.9375 C2.07410156 6.85402344 2.08570313 7.77054688 2.09765625 8.71484375 C2 11 2 11 1 12 C-0.68608966 12.07205511 -2.37500659 12.08386068 -4.0625 12.0625 C-4.98160156 12.05347656 -5.90070312 12.04445313 -6.84765625 12.03515625 C-7.55792969 12.02355469 -8.26820312 12.01195312 -9 12 C-9 9 -9 9 -7.03125 6.73828125 C-5.77828125 5.53751953 -5.77828125 5.53751953 -4.5 4.3125 C-3.6646875 3.50425781 -2.829375 2.69601563 -1.96875 1.86328125 C-1.3190625 1.24839844 -0.669375 0.63351563 0 0 Z " fill="#1C0A0F" transform="translate(33,24)"/>
<path d="M0 0 C1.17046875 0.03609375 2.3409375 0.0721875 3.546875 0.109375 C4.43890625 0.15578125 5.3309375 0.2021875 6.25 0.25 C0.25 6.25 0.25 6.25 -1.51586914 6.36352539 C-2.26473389 6.35828857 -3.01359863 6.35305176 -3.78515625 6.34765625 C-4.59404297 6.34443359 -5.40292969 6.34121094 -6.23632812 6.33789062 C-7.08646484 6.32951172 -7.93660156 6.32113281 -8.8125 6.3125 C-9.66650391 6.30798828 -10.52050781 6.30347656 -11.40039062 6.29882812 C-13.51695663 6.28700373 -15.63348685 6.26906769 -17.75 6.25 C-16.37109375 4.71484375 -16.37109375 4.71484375 -14.75 3.25 C-14.110625 3.435625 -13.47125 3.62125 -12.8125 3.8125 C-12.131875 3.956875 -11.45125 4.10125 -10.75 4.25 C-10.18667969 3.60417969 -9.62335937 2.95835938 -9.04296875 2.29296875 C-5.94550597 -0.46678088 -4.07808624 -0.16312345 0 0 Z " fill="#893C57" transform="translate(51.75,15.75)"/>
<path d="M0 0 C0.99 0.33 1.98 0.66 3 1 C3.08939932 4.21837539 2.93346845 6.91955413 2 10 C1.566875 11.5159375 1.566875 11.5159375 1.125 13.0625 C0.02983325 15.92210207 -0.8178324 16.99073639 -3 19 C-3.08071788 16.20775927 -3.14035408 13.41783434 -3.1875 10.625 C-3.21263672 9.8309375 -3.23777344 9.036875 -3.26367188 8.21875 C-3.29004405 6.14413852 -3.15486462 4.06899135 -3 2 C-2.01 1.34 -1.02 0.68 0 0 Z " fill="#925882" transform="translate(68,27)"/>
<path d="M0 0 C0 4.29 0 8.58 0 13 C-1.98 13 -3.96 13 -6 13 C-6.33 13.99 -6.66 14.98 -7 16 C-7.49702835 11.94093514 -7.86984448 8.44190436 -5.69921875 4.84375 C-1.54034324 0 -1.54034324 0 0 0 Z " fill="#364E8E" transform="translate(72,58)"/>
<path d="M0 0 C1.16781006 0.00523682 2.33562012 0.01047363 3.53881836 0.01586914 C4.79887695 0.0190918 6.05893555 0.02231445 7.35717773 0.02563477 C8.6976732 0.03399136 10.03816799 0.04245632 11.37866211 0.05102539 C12.72306153 0.05603879 14.06746271 0.06060197 15.41186523 0.06469727 C18.71334151 0.07653051 22.01473014 0.09301568 25.31616211 0.11352539 C25.31616211 0.77352539 25.31616211 1.43352539 25.31616211 2.11352539 C16.40616211 2.11352539 7.49616211 2.11352539 -1.68383789 2.11352539 C-1.68383789 6.07352539 -1.68383789 10.03352539 -1.68383789 14.11352539 C-2.34383789 14.11352539 -3.00383789 14.11352539 -3.68383789 14.11352539 C-3.71069727 11.96775903 -3.73016877 9.82189894 -3.74633789 7.67602539 C-3.75793945 6.48106445 -3.76954102 5.28610352 -3.78149414 4.05493164 C-3.65199701 0.15447818 -3.65199701 0.15447818 0 0 Z " fill="#1E0C11" transform="translate(37.683837890625,22.886474609375)"/>
<path d="M0 0 C1.98 0 3.96 0 6 0 C6 5.28 6 10.56 6 16 C4.68 14.68 3.36 13.36 2 12 C1.67 12 1.34 12 1 12 C0.67 8.04 0.34 4.08 0 0 Z " fill="#76466F" transform="translate(66,16)"/>
<path d="M0 0 C-6.8987179 4.369188 -14.03763921 8.0959572 -22 10 C-22.33 9.01 -22.66 8.02 -23 7 C-21.71349294 6.30289269 -20.42059335 5.61757124 -19.125 4.9375 C-18.40570312 4.55464844 -17.68640625 4.17179687 -16.9453125 3.77734375 C-16.30335937 3.52082031 -15.66140625 3.26429687 -15 3 C-14.34 3.33 -13.68 3.66 -13 4 C-10.38454291 2.81564207 -7.92131565 1.42181839 -5.41015625 0.03125 C-3 -1 -3 -1 0 0 Z " fill="#4B223E" transform="translate(32,14)"/>
<path d="M0 0 C0.33 0 0.66 0 1 0 C1 7.38086764 -3.08252001 11.79479512 -8 17 C-10.578125 19.36328125 -10.578125 19.36328125 -13 21 C-13.99 20.67 -14.98 20.34 -16 20 C-15.00419922 19.19949219 -15.00419922 19.19949219 -13.98828125 18.3828125 C-7.76053884 13.12787073 -4.17982228 8.45409503 -1 1 C-0.67 0.67 -0.34 0.34 0 0 Z " fill="#61467C" transform="translate(62,59)"/>
<path d="M0 0 C0.72029201 6.8427741 0.72029201 6.8427741 -1.30078125 10.08984375 C-2.79691242 11.83592524 -4.27924104 13.4746735 -6 15 C-6.33 15 -6.66 15 -7 15 C-7.72029201 8.1572259 -7.72029201 8.1572259 -5.69921875 4.91015625 C-1.49194785 0 -1.49194785 0 0 0 Z " fill="#525790" transform="translate(72,50)"/>
<path d="M0 0 C1.65 0 3.3 0 5 0 C5 4.29 5 8.58 5 13 C6.65 13 8.3 13 10 13 C10 13.33 10 13.66 10 14 C8.02 14 6.04 14 4 14 C1.77343836 9.25645564 0.53851968 5.27749285 0 0 Z " fill="#341D36" transform="translate(65,0)"/>
<path d="M0 0 C0.33 0 0.66 0 1 0 C1.55559553 5.5559553 0.03166781 9.44765536 -3 14 C-5.75 16.5 -5.75 16.5 -8 18 C-7.45592551 14.08266365 -6.35392615 12.10718251 -4 9 C-3.30899447 7.00827818 -2.64097297 5.00838196 -2 3 C-1.34 2.01 -0.68 1.02 0 0 Z " fill="#985074" transform="translate(62,44)"/>
<path d="M0 0 C0.33 0 0.66 0 1 0 C1.29346907 3.05207838 1.41682935 5.95556288 1 9 C-1.125 11.3125 -1.125 11.3125 -4 13 C-5.10781665 13.74459808 -6.2120374 14.49457555 -7.3125 15.25 C-8.199375 15.8275 -9.08625 16.405 -10 17 C-8.62949185 14.04154732 -7.02177157 11.61498661 -5 9.0625 C-2.76917046 6.1515395 -1.1059289 3.53897249 0 0 Z " fill="#804C78" transform="translate(62,50)"/>
<path d="M0 0 C0.99 0.33 1.98 0.66 3 1 C0.18667027 4.30979968 -3.141943 6.1048141 -7 8 C-9.4375 7.75 -9.4375 7.75 -11 7 C-7.96491445 3.49797821 -5.42054977 2.27704771 -1 1 C-0.67 0.67 -0.34 0.34 0 0 Z " fill="#3F1C31" transform="translate(29,10)"/>
<path d="M0 0 C0.66 1.32 1.32 2.64 2 4 C-2.95 4 -7.9 4 -13 4 C-13 3.34 -13 2.68 -13 2 C-11.8553125 2.061875 -11.8553125 2.061875 -10.6875 2.125 C-6.58707945 1.93428277 -4.39278562 -0.23744787 0 0 Z " fill="#643359" transform="translate(61,9)"/>
<path d="M0 0 C0.33 0 0.66 0 1 0 C1.92017937 8.4690583 1.92017937 8.4690583 -0.3359375 12.22265625 C-1.81972046 13.91890579 -3.32453303 15.49407433 -5 17 C-5.33 16.34 -5.66 15.68 -6 15 C-5.09239638 12.40267775 -4.12932108 9.90549025 -3.0625 7.375 C-2.77181641 6.66859375 -2.48113281 5.9621875 -2.18164062 5.234375 C-1.46132512 3.48672427 -0.73154306 1.74298085 0 0 Z " fill="#665E92" transform="translate(71,40)"/>
<path d="M0 0 C3.12643166 3.12643166 2.94739494 6.25037786 3.25 10.5625 C3 14 3 14 0 18 C0 12.06 0 6.12 0 0 Z " fill="#4D4D77" transform="translate(75,27)"/>
<path d="M0 0 C0.33 0.66 0.66 1.32 1 2 C0.109375 3.83984375 0.109375 3.83984375 -1.25 5.9375 C-1.68828125 6.62714844 -2.1265625 7.31679687 -2.578125 8.02734375 C-3.92063972 9.88989851 -5.3288332 11.43205233 -7 13 C-7.99 12.67 -8.98 12.34 -10 12 C-9.61328125 11.55269531 -9.2265625 11.10539062 -8.828125 10.64453125 C-5.81609925 7.1478974 -2.85678969 3.62592537 0 0 Z " fill="#6F4477" transform="translate(59,62)"/>
<path d="M0 0 C0.33 0 0.66 0 1 0 C1 2.64 1 5.28 1 8 C-1.64 8 -4.28 8 -7 8 C-6.02133662 6.85373678 -5.04205413 5.70800212 -4.0625 4.5625 C-3.51722656 3.92441406 -2.97195312 3.28632812 -2.41015625 2.62890625 C-1.63204305 1.73008851 -0.84063472 0.84063472 0 0 Z " fill="#3B488B" transform="translate(62,72)"/>
<path d="M0 0 C0.33 0 0.66 0 1 0 C1 2.64 1 5.28 1 8 C-1.64 8 -4.28 8 -7 8 C-6.02133662 6.85373678 -5.04205413 5.70800212 -4.0625 4.5625 C-3.51722656 3.92441406 -2.97195312 3.28632813 -2.41015625 2.62890625 C-1.63204305 1.73008851 -0.84063472 0.84063472 0 0 Z " fill="#B94864" transform="translate(33,27)"/>
<path d="M0 0 C0.33 0 0.66 0 1 0 C1 2.97 1 5.94 1 9 C-1.97 9 -4.94 9 -8 9 C-8 8.01 -8 7.02 -8 6 C-5.36 6 -2.72 6 0 6 C0 4.02 0 2.04 0 0 Z " fill="#0B162B" transform="translate(74,65)"/>
<path d="M0 0 C2.375 1.3125 2.375 1.3125 3.0625 3.375 C3.165625 4.014375 3.26875 4.65375 3.375 5.3125 C4.035 5.6425 4.695 5.9725 5.375 6.3125 C4.385 6.3125 3.395 6.3125 2.375 6.3125 C1.715 5.3225 1.055 4.3325 0.375 3.3125 C-1.2646875 3.56 -1.2646875 3.56 -2.9375 3.8125 C-6.625 4.3125 -6.625 4.3125 -9.625 4.3125 C-4.49051511 -1.17608729 -4.49051511 -1.17608729 0 0 Z " fill="#582E52" transform="translate(60.625,6.6875)"/>
<path d="M0 0 C0.66 0.33 1.32 0.66 2 1 C2 2.65 2 4.3 2 6 C-0.64 6 -3.28 6 -6 6 C-2.25 1.125 -2.25 1.125 0 0 Z " fill="#924163" transform="translate(58,16)"/>
<path d="M0 0 C0.66 0.99 1.32 1.98 2 3 C1.03221758 7.22305057 0.12148941 8.87851059 -3 12 C-2.67 9.03 -2.34 6.06 -2 3 C-1.34 3 -0.68 3 0 3 C0 2.01 0 1.02 0 0 Z " fill="#875D8A" transform="translate(68,34)"/>
<path d="M0 0 C-1.04800781 0.48919922 -1.04800781 0.48919922 -2.1171875 0.98828125 C-3.48230469 1.64376953 -3.48230469 1.64376953 -4.875 2.3125 C-5.77992187 2.74175781 -6.68484375 3.17101562 -7.6171875 3.61328125 C-10.26449476 4.9199388 -10.26449476 4.9199388 -12 8 C-12.66 7.67 -13.32 7.34 -14 7 C-12.99453315 4.41839592 -12.31537358 3.1992778 -9.94140625 1.69921875 C-9.15636719 1.36535156 -8.37132812 1.03148437 -7.5625 0.6875 C-6.78003906 0.34074219 -5.99757813 -0.00601562 -5.19140625 -0.36328125 C-3 -1 -3 -1 0 0 Z " fill="#7D3157" transform="translate(23,26)"/>
<path d="M0 0 C1.65 0 3.3 0 5 0 C5 0.99 5 1.98 5 3 C4 4 4 4 1.4375 4.0625 C0.2309375 4.0315625 0.2309375 4.0315625 -1 4 C-0.67 2.68 -0.34 1.36 0 0 Z " fill="#713C61" transform="translate(36,76)"/>
<path d="M0 0 C0.99 0 1.98 0 3 0 C3 2.97 3 5.94 3 9 C2.01 9.495 2.01 9.495 1 10 C-0.60725635 6.78548731 -0.05748185 3.56387464 0 0 Z " fill="#643C60" transform="translate(69,16)"/>
<path d="M0 0 C-2 3 -2 3 -3.9453125 3.51171875 C-4.66460938 3.56972656 -5.38390625 3.62773438 -6.125 3.6875 C-8.043125 3.8421875 -8.043125 3.8421875 -10 4 C-6.87839899 0.56623888 -4.64008112 -1.54669371 0 0 Z " fill="#97395D" transform="translate(25,29)"/>
<path d="M0 0 C0.66 0.66 1.32 1.32 2 2 C2.66 1.67 3.32 1.34 4 1 C3.67 4.3 3.34 7.6 3 11 C0.60236815 8.60236815 0.65719414 7.66726502 0.375 4.375 C0.30023438 3.55773437 0.22546875 2.74046875 0.1484375 1.8984375 C0.09945312 1.27195312 0.05046875 0.64546875 0 0 Z " fill="#312942" transform="translate(77,20)"/>
<path d="M0 0 C0.33 1.32 0.66 2.64 1 4 C-0.65 5.32 -2.3 6.64 -4 8 C-3.50168276 4.31245243 -2.89932357 2.39509338 0 0 Z " fill="#964669" transform="translate(58,54)"/>
<path d="M0 0 C0.66 0.66 1.32 1.32 2 2 C-0.31 4.31 -2.62 6.62 -5 9 C-5 4.61031544 -2.87194899 3.23094261 0 0 Z " fill="#864570" transform="translate(58,58)"/>
<path d="M0 0 C-0.66 1.32 -1.32 2.64 -2 4 C-2.99 3.67 -3.98 3.34 -5 3 C-2.25 0 -2.25 0 0 0 Z M-5 4 C-5 4.66 -5 5.32 -5 6 C-6.32 5.67 -7.64 5.34 -9 5 C-7 4 -7 4 -5 4 Z " fill="#562D50" transform="translate(53,7)"/>
<path d="M0 0 C-0.6875 1.9375 -0.6875 1.9375 -2 4 C-4.625 4.75 -4.625 4.75 -7 5 C-2.25 0 -2.25 0 0 0 Z " fill="#64416E" transform="translate(49,75)"/>
<path d="M0 0 C0.99 0.33 1.98 0.66 3 1 C3 2.65 3 4.3 3 6 C2.01 6.33 1.02 6.66 0 7 C0 4.69 0 2.38 0 0 Z " fill="#7F547F" transform="translate(68,27)"/>
</svg>
